Coordinates
version=1
nRows=19
nColumns=27
inDegrees=yes

Units are S.I. units (second, meters, Newtons, ...)
If the header above contains a line with 'inDegrees', this indicates whether rotational values are in degrees (yes) or radians (no).

endheader
time	pelvis_rotation	pelvis_tilt	pelvis_list	pelvis_tx	pelvis_ty	pelvis_tz	hip_flexion_r	hip_adduction_r	hip_rotation_r	knee_angle_r	knee_rotation_r	knee_adduction_r	knee_angle_r_beta	ankle_angle_r	subtalar_angle_r	mtp_angle_r	hip_flexion_l	hip_adduction_l	hip_rotation_l	knee_angle_l	knee_rotation_l	knee_adduction_l	knee_angle_l_beta	ankle_angle_l	subtalar_angle_l	mtp_angle_l
      3.27500000	      8.82691392	    -30.44424665	      8.09593633	     -0.03036127	      0.54527553	     -1.18367134	    117.45189024	    -49.44570640	     17.51651481	     98.13518442	      0.00000000	   -692.95688035	      1.71278208	     19.72624773	      0.00000000	      0.00000000	    105.19612579	    -28.67429658	      5.53866481	     91.24809345	      0.00000000	     -9.94243317	      1.59257967	     13.14376574	      0.00000000	      0.00000000
      3.28000000	      8.81266980	    -30.38300397	      8.07718160	     -0.03026846	      0.54368626	     -1.18368763	    117.69265595	    -49.44403858	     17.76320826	     98.37378306	      0.00000000	   -692.90861575	      1.71694641	     19.80438057	      0.00000000	      0.00000000	    105.37696266	    -28.70121119	      5.69761705	     91.50691744	      0.00000000	     -9.94260880	      1.59709700	     13.25993728	      0.00000000	      0.00000000
      3.28500000	      8.81835861	    -30.39876014	      8.06312909	     -0.03017630	      0.54207714	     -1.18372109	    118.01982934	    -49.44693440	     18.02478291	     98.62138454	      0.00000000	   -692.83374551	      1.72126787	     19.87260673	      0.00000000	      0.00000000	    105.64758496	    -28.70618347	      5.87627737	     91.76903665	      0.00000000	     -9.94276831	      1.60167184	     13.31874891	      0.00000000	      0.00000000
      3.29000000	      8.82841343	    -30.39324146	      8.06643831	     -0.03008682	      0.54045318	     -1.18374177	    118.35489395	    -49.44581322	     18.31467297	     98.87412415	      0.00000000	   -692.77362072	      1.72567901	     19.93943346	      0.00000000	      0.00000000	    105.88834702	    -28.71379059	      6.03255323	     92.03195544	      0.00000000	     -9.94291424	      1.60626064	     13.40667485	      0.00000000	      0.00000000
      3.29500000	      8.85169043	    -30.40593634	      8.09366434	     -0.03000237	      0.53880678	     -1.18376933	    118.73231261	    -49.43888987	     18.63972472	     99.12897708	      0.00000000	   -692.70152316	      1.73012703	     20.01901610	      0.00000000	      0.00000000	    106.13932560	    -28.71093617	      6.17339087	     92.29169961	      0.00000000	     -9.94307380	      1.61079403	     13.47709028	      0.00000000	      0.00000000
      3.30000000	      8.85488933	    -30.43126400	      8.07848693	     -0.02990449	      0.53720037	     -1.18379101	    119.05519944	    -49.42836647	     18.89069674	     99.36897366	      0.00000000	   -692.65832918	      1.73431576	     20.12042780	      0.00000000	      0.00000000	    106.42246419	    -28.71913953	      6.35835778	     92.55591870	      0.00000000	     -9.94325212	      1.61540552	     13.54674798	      0.00000000	      0.00000000
      3.30500000	      8.85711077	    -30.37355399	      8.07113012	     -0.02981354	      0.53553511	     -1.18386702	    119.34358302	    -49.43395367	     19.18236972	     99.61756098	      0.00000000	   -692.58764155	      1.73865443	     20.14265230	      0.00000000	      0.00000000	    106.61106259	    -28.69678549	      6.53533747	     92.81498744	      0.00000000	     -9.94340584	      1.61992713	     13.62547437	      0.00000000	      0.00000000
      3.31000000	      8.87394809	    -30.37962113	      8.08844876	     -0.02971181	      0.53384306	     -1.18391568	    119.71739417	    -49.42580726	     19.50463546	     99.87534917	      0.00000000	   -692.52246067	      1.74315368	     20.20790233	      0.00000000	      0.00000000	    106.86580783	    -28.68381000	      6.69883610	     93.08441408	      0.00000000	     -9.94356031	      1.62462951	     13.69481046	      0.00000000	      0.00000000
      3.31500000	      8.87151266	    -30.29444820	      8.06709522	     -0.02957577	      0.53217234	     -1.18401054	    119.96080434	    -49.44067395	     19.77629062	    100.12200374	      0.00000000	   -692.45958412	      1.74745862	     20.24156337	      0.00000000	      0.00000000	    107.03283268	    -28.66738446	      6.88030617	     93.36167462	      0.00000000	     -9.94370855	      1.62946862	     13.82396907	      0.00000000	      0.00000000
      3.32000000	      8.88348739	    -30.34022727	      8.07466095	     -0.02948893	      0.53049104	     -1.18405391	    120.34528245	    -49.41881870	     20.07514439	    100.36907130	      0.00000000	   -692.39780824	      1.75177076	     20.33788275	      0.00000000	      0.00000000	    107.33522748	    -28.65246111	      7.06357117	     93.62095019	      0.00000000	     -9.94386254	      1.63399383	     13.85337568	      0.00000000	      0.00000000
      3.32500000	      8.88056413	    -30.25039111	      8.07168867	     -0.02931133	      0.52877743	     -1.18414767	    120.61580033	    -49.43108800	     20.38523500	    100.62685232	      0.00000000	   -692.31861351	      1.75626989	     20.40168685	      0.00000000	      0.00000000	    107.48841758	    -28.64125510	      7.22764891	     93.89668843	      0.00000000	     -9.94402999	      1.63880637	     13.95301818	      0.00000000	      0.00000000
      3.33000000	      8.87321748	    -30.20654766	      8.06837187	     -0.02912771	      0.52709903	     -1.18422763	    120.91451299	    -49.42807843	     20.67613946	    100.87722094	      0.00000000	   -692.23377629	      1.76063965	     20.49653268	      0.00000000	      0.00000000	    107.68847721	    -28.64877722	      7.39200749	     94.16416403	      0.00000000	     -9.94420919	      1.64347470	     14.03484120	      0.00000000	      0.00000000
      3.33500000	      8.88568865	    -30.16681302	      8.06027681	     -0.02899435	      0.52539457	     -1.18430373	    121.21516164	    -49.43428206	     20.97247437	    101.12813130	      0.00000000	   -692.16640406	      1.76501886	     20.53848891	      0.00000000	      0.00000000	    107.90708979	    -28.61344346	      7.58145776	     94.43391123	      0.00000000	     -9.94440304	      1.64818268	     14.09818324	      0.00000000	      0.00000000
      3.34000000	      8.88365077	    -30.15779056	      8.04961993	     -0.02882842	      0.52367250	     -1.18439370	    121.54554181	    -49.42708248	     21.26151381	    101.37868596	      0.00000000	   -692.08583806	      1.76939186	     20.60847415	      0.00000000	      0.00000000	    108.16052883	    -28.61103906	      7.76705987	     94.71184253	      0.00000000	     -9.94457946	      1.65303349	     14.18271309	      0.00000000	      0.00000000
      3.34500000	      8.87470600	    -30.12627013	      8.02438946	     -0.02864139	      0.52198211	     -1.18446656	    121.82645863	    -49.42456892	     21.52536592	    101.62484104	      0.00000000	   -692.01249004	      1.77368808	     20.67076161	      0.00000000	      0.00000000	    108.39293471	    -28.61264284	      7.95957100	     94.98298157	      0.00000000	     -9.94476029	      1.65776576	     14.24827873	      0.00000000	      0.00000000
      3.35000000	      8.87396196	    -30.11003532	      8.01731672	     -0.02844119	      0.52025800	     -1.18454278	    122.14932263	    -49.41823901	     21.82034140	    101.87677872	      0.00000000	   -691.92916398	      1.77808522	     20.74556224	      0.00000000	      0.00000000	    108.63470475	    -28.61927035	      8.13413614	     95.25801407	      0.00000000	     -9.94495996	      1.66256598	     14.32473673	      0.00000000	      0.00000000
      3.35500000	      8.86201237	    -30.11654851	      7.98923972	     -0.02826715	      0.51857148	     -1.18461990	    122.45860140	    -49.39968779	     22.07383765	    102.11807638	      0.00000000	   -691.86469172	      1.78229666	     20.78651921	      0.00000000	      0.00000000	    108.91337126	    -28.62587897	      8.33738746	     95.53398461	      0.00000000	     -9.94516877	      1.66738258	     14.39627299	      0.00000000	      0.00000000
      3.36000000	      8.87362715	    -30.04856812	      7.97929771	     -0.02802970	      0.51689104	     -1.18468511	    122.72217386	    -49.42007791	     22.36177954	    102.36623903	      0.00000000	   -691.76251976	      1.78662791	     20.88541436	      0.00000000	      0.00000000	    109.09569617	    -28.62160070	      8.50284841	     95.79236509	      0.00000000	     -9.94541417	      1.67189217	     14.45095485	      0.00000000	      0.00000000
      3.36500000	      8.86419587	    -30.00601430	      7.94067307	     -0.02781115	      0.51517272	     -1.18473089	    122.97911146	    -49.42343394	     22.61275431	    102.61501484	      0.00000000	   -691.66306853	      1.79096987	     20.96894030	      0.00000000	      0.00000000	    109.32575277	    -28.62803034	      8.70666305	     96.06212844	      0.00000000	     -9.94561117	      1.67660043	     14.52985539	      0.00000000	      0.00000000
